<svg preserveAspectRatio="none" width="100%" height="100%" overflow="visible" style="display: block;" viewBox="0 0 18.9999 18.9999" fill="none" xmlns="http://www.w3.org/2000/svg">
<path id="Icon" d="M8.84227 6.61536H16.9577C16.5141 5.45254 15.8218 4.43939 14.8807 3.57593C13.9397 2.71246 12.8628 2.12048 11.65 1.79996L8.84227 6.61536V6.61536M6.65766 8.61536L10.7346 1.59996C10.5513 1.56663 10.3455 1.54163 10.1173 1.52496C9.88907 1.5083 9.6833 1.49996 9.49996 1.49996C8.39996 1.49996 7.37496 1.7083 6.42496 2.12496C5.47496 2.54163 4.6333 3.09996 3.89996 3.79996L6.65766 8.61536V8.61536M1.74996 11.5H7.31536L3.27689 4.5038C2.71792 5.20637 2.28202 5.97656 1.9692 6.81438C1.65637 7.6522 1.49996 8.5474 1.49996 9.49996C1.49996 9.84996 1.5208 10.1875 1.56246 10.5125C1.60413 10.8375 1.66663 11.1666 1.74996 11.5V11.5M7.3692 17.2L10.1461 12.3846H2.04227C2.48586 13.5474 3.18137 14.5605 4.12881 15.424C5.07624 16.2875 6.15637 16.8795 7.3692 17.2V17.2M9.49996 17.5C10.6 17.5 11.625 17.2916 12.575 16.875C13.525 16.4583 14.3666 15.9 15.1 15.2L12.3423 10.3846L8.28457 17.3807C8.4679 17.4205 8.6663 17.4503 8.87977 17.4702C9.09323 17.49 9.29996 17.5 9.49996 17.5V17.5M15.723 14.4961C16.2564 13.8128 16.6859 13.0426 17.0115 12.1855C17.3371 11.3285 17.5 10.4333 17.5 9.49996C17.5 9.14996 17.4791 8.81246 17.4375 8.48746C17.3958 8.16246 17.3333 7.8333 17.25 7.49996H11.6846L15.723 14.4961V14.4961M9.49996 9.49996V9.49996V9.49996V9.49996V9.49996V9.49996V9.49996V9.49996V9.49996V9.49996V9.49996V9.49996V9.49996V9.49996V9.49996V9.49996V9.49996V9.49996M9.49996 18.9999C8.1974 18.9999 6.96824 18.7502 5.81248 18.2509C4.65671 17.7515 3.6487 17.0717 2.78845 16.2115C1.9282 15.3512 1.24839 14.3432 0.749036 13.1874C0.249679 12.0317 0 10.8025 0 9.49996C0 8.18715 0.249679 6.95542 0.749036 5.80479C1.24839 4.65415 1.9282 3.6487 2.78845 2.78845C3.6487 1.9282 4.65671 1.24839 5.81248 0.749036C6.96824 0.249679 8.1974 0 9.49996 0C10.8128 0 12.0445 0.249679 13.1951 0.749036C14.3458 1.24839 15.3512 1.9282 16.2115 2.78845C17.0717 3.6487 17.7515 4.65415 18.2509 5.80479C18.7502 6.95542 18.9999 8.18715 18.9999 9.49996C18.9999 10.8025 18.7502 12.0317 18.2509 13.1874C17.7515 14.3432 17.0717 15.3512 16.2115 16.2115C15.3512 17.0717 14.3458 17.7515 13.1951 18.2509C12.0445 18.7502 10.8128 18.9999 9.49996 18.9999V18.9999" fill="var(--fill-0, #494551)"/>
</svg>
