<svg preserveAspectRatio="none" width="100%" height="100%" overflow="visible" style="display: block;" viewBox="0 0 39.6151 40.8459" fill="none" xmlns="http://www.w3.org/2000/svg">
<g id="Container">
<path id="Icon" d="M32.8075 13.6152L30.6921 8.92296L25.9999 6.8076L30.6921 4.69225L32.8075 0L34.9228 4.69225L39.6151 6.8076L34.9228 8.92296L32.8075 13.6152V13.6152M32.8075 40.8459L30.6921 36.1537L25.9999 34.0383L30.6921 31.923L32.8075 27.2307L34.9228 31.923L39.6151 34.0383L34.9228 36.1537L32.8075 40.8459V40.8459M13.5767 33.9997L9.34603 24.6537L0 20.423L9.34603 16.1922L13.5767 6.84622L17.8075 16.1922L27.1535 20.423L17.8075 24.6537L13.5767 33.9997V33.9997M13.5767 26.723L15.5767 22.423L19.8767 20.423L15.5767 18.423L13.5767 14.123L11.5767 18.423L7.27675 20.423L11.5767 22.423L13.5767 26.723V26.723M13.5767 20.423V20.423V20.423V20.423V20.423V20.423V20.423V20.423V20.423V20.423" fill="var(--fill-0, #494551)"/>
</g>
</svg>
